<?xml version="1.0" encoding="UTF-8"?>
<svg version="1.1" xmlns="http://www.w3.org/2000/svg" width="32" height="32">
<path d="M0 0 C0.66 0 1.32 0 2 0 C2.45375 1.134375 2.9075 2.26875 3.375 3.4375 C4.57095806 7.04721692 4.57095806 7.04721692 7 8 C10.61591352 8.39303408 12.32950951 8.5214926 15.25 6.25 C16.83145927 4.21669523 17.98828546 2.36066727 19 0 C24.875 1.875 24.875 1.875 26 3 C26 5.33333333 26 7.66666667 26 10 C26.30572813 11.67195072 26.63371347 13.34026416 27 15 C26.40832031 15.32613281 25.81664063 15.65226562 25.20703125 15.98828125 C24.41683594 16.42527344 23.62664063 16.86226562 22.8125 17.3125 C22.03519531 17.74175781 21.25789063 18.17101562 20.45703125 18.61328125 C18.80123644 19.54779184 17.17889264 20.54385033 15.59375 21.59375 C12.59045702 23.22204137 10.0600492 23.70570726 6.6875 24.1875 C5.61886719 24.34605469 4.55023438 24.50460938 3.44921875 24.66796875 C2.23685547 24.83232422 2.23685547 24.83232422 1 25 C1 23.35 1 21.7 1 20 C-0.65 19.67 -2.3 19.34 -4 19 C-4.75 16.3125 -4.75 16.3125 -5 13 C-3.67189785 11.32916181 -2.33827304 9.66270287 -1 8 C-0.74936268 4.33285151 -0.74936268 4.33285151 -1 1 C-0.67 0.67 -0.34 0.34 0 0 Z M21 3 C20.34 5.31 19.68 7.62 19 10 C19.99 9.67 20.98 9.34 22 9 C22.33 7.35 22.66 5.7 23 4 C22.34 3.67 21.68 3.34 21 3 Z M0 10 C-0.66 10.66 -1.32 11.32 -2 12 C-1.67958603 14.60280568 -1.67958603 14.60280568 -1 17 C1.64 17 4.28 17 7 17 C7.33 16.34 7.66 15.68 8 15 C7.05125 14.175 6.1025 13.35 5.125 12.5 C4.59132813 12.0359375 4.05765625 11.571875 3.5078125 11.09375 C2.04063579 9.80427542 2.04063579 9.80427542 0 10 Z " fill="#5884F3" transform="translate(5,4)"/>
<path d="M0 0 C0.99 0.33 1.98 0.66 3 1 C3 2.32 3 3.64 3 5 C2.40832031 5.32613281 1.81664063 5.65226562 1.20703125 5.98828125 C0.02173828 6.64376953 0.02173828 6.64376953 -1.1875 7.3125 C-1.96480469 7.74175781 -2.74210937 8.17101563 -3.54296875 8.61328125 C-5.19876356 9.54779184 -6.82110736 10.54385033 -8.40625 11.59375 C-11.40954298 13.22204137 -13.9399508 13.70570726 -17.3125 14.1875 C-18.38113281 14.34605469 -19.44976562 14.50460938 -20.55078125 14.66796875 C-21.35902344 14.77753906 -22.16726562 14.88710938 -23 15 C-23 13.35 -23 11.7 -23 10 C-22.27554687 9.89042969 -21.55109375 9.78085937 -20.8046875 9.66796875 C-13.69060528 8.50125927 -8.30763517 7.08839951 -2.8125 2.25 C-1.4203125 1.13625 -1.4203125 1.13625 0 0 Z " fill="#A69FE1" transform="translate(29,14)"/>
<path d="M0 0 C0.66 0 1.32 0 2 0 C1.88601335 1.62580966 1.75844341 3.25067157 1.625 4.875 C1.55539063 5.77992187 1.48578125 6.68484375 1.4140625 7.6171875 C1 10 1 10 -1 12 C-1 13.32 -1 14.64 -1 16 C1.01822917 16.16276042 3.03645833 16.32552083 5.0546875 16.48828125 C7 17 7 17 9 20 C7.22992286 20.08114106 5.45877902 20.13925505 3.6875 20.1875 C2.70136719 20.22230469 1.71523437 20.25710937 0.69921875 20.29296875 C-2 20 -2 20 -3.86328125 18.67578125 C-5 17 -5 17 -4.875 14 C-4 11 -4 11 -2.4375 9.5625 C-0.11215675 7.03495299 -0.87830561 4.28574855 -1 1 C-0.67 0.67 -0.34 0.34 0 0 Z " fill="#9D87E9" transform="translate(5,4)"/>
<path d="M0 0 C0.66 0 1.32 0 2 0 C5 3.46153846 5 3.46153846 5 6 C6.423125 6.2165625 6.423125 6.2165625 7.875 6.4375 C11 7 11 7 13 8 C13 8.66 13 9.32 13 10 C10.11138291 11.44430855 8.20352299 11.37688506 5 11 C2.125 8.875 2.125 8.875 0 6 C-0.3125 2.6875 -0.3125 2.6875 0 0 Z " fill="#6672E9" transform="translate(6,8)"/>
<path d="M0 0 C0.66 0 1.32 0 2 0 C1.125 7.75 1.125 7.75 0 10 C0.66 10.33 1.32 10.66 2 11 C0.02 11.66 -1.96 12.32 -4 13 C-4.66 11.35 -5.32 9.7 -6 8 C-5.38125 7.4225 -4.7625 6.845 -4.125 6.25 C-2.18652947 4.19750179 -1.09985751 2.56633418 0 0 Z " fill="#AD8BE7" transform="translate(24,4)"/>
<path d="M0 0 C0.99 0.33 1.98 0.66 3 1 C3 2.65 3 4.3 3 6 C1.02 6.99 1.02 6.99 -1 8 C-1.66 7.34 -2.32 6.68 -3 6 C-2.75 3.4375 -2.75 3.4375 -2 1 C-1.34 0.67 -0.68 0.34 0 0 Z " fill="#8882E8" transform="translate(15,4)"/>
<path d="M0 0 C2.64 0.33 5.28 0.66 8 1 C8.66 2.65 9.32 4.3 10 6 C5.56923077 9.07692308 5.56923077 9.07692308 2.6875 8.6875 C2.130625 8.460625 1.57375 8.23375 1 8 C3.31 7.34 5.62 6.68 8 6 C8 5.34 8 4.68 8 4 C5.36 3.34 2.72 2.68 0 2 C0 1.34 0 0.68 0 0 Z " fill="#8D87EA" transform="translate(11,12)"/>
<path d="M0 0 C1.62418745 -0.08090971 3.24951745 -0.13914995 4.875 -0.1875 C5.77992188 -0.22230469 6.68484375 -0.25710937 7.6171875 -0.29296875 C8.79667969 -0.14794922 8.79667969 -0.14794922 10 0 C10.66 0.99 11.32 1.98 12 3 C8.37 3 4.74 3 1 3 C0.67 2.01 0.34 1.02 0 0 Z " fill="#8B81EC" transform="translate(2,21)"/>
<path d="M0 0 C3.875 0.875 3.875 0.875 5 2 C4.71269945 4.33944736 4.38063221 6.6739143 4 9 C3.01 8.67 2.02 8.34 1 8 C1.020625 7.236875 1.04125 6.47375 1.0625 5.6875 C1.12942841 2.89814214 1.12942841 2.89814214 0 0 Z " fill="#729EF1" transform="translate(26,5)"/>
<path d="M0 0 C0.66 0 1.32 0 2 0 C1.25 7.75 1.25 7.75 -1 10 C-2.23076923 4.58461538 -2.23076923 4.58461538 -1.0625 1.625 C-0.5365625 0.820625 -0.5365625 0.820625 0 0 Z " fill="#D398E5" transform="translate(24,4)"/>
<path d="M0 0 C0.66 0 1.32 0 2 0 C1.9129995 1.62600941 1.8048219 3.25089678 1.6875 4.875 C1.62949219 5.77992187 1.57148437 6.68484375 1.51171875 7.6171875 C1 10 1 10 -2 12 C-1.85904936 10.3745692 -1.71207913 8.74965949 -1.5625 7.125 C-1.48128906 6.22007813 -1.40007812 5.31515625 -1.31640625 4.3828125 C-1 2 -1 2 0 0 Z " fill="#A8A3E8" transform="translate(5,4)"/>
<path d="M0 0 C0.99 0.66 1.98 1.32 3 2 C-0.63423209 4.32590854 -3.77088331 4.16265833 -8 4 C-5.48528134 1.48528134 -3.43183318 0.84044894 0 0 Z " fill="#6B7CF0" transform="translate(18,19)"/>
<path d="M0 0 C0.99 0.33 1.98 0.66 3 1 C3 2.65 3 4.3 3 6 C1.02 5.01 -0.96 4.02 -3 3 C-2.01 2.01 -1.02 1.02 0 0 Z " fill="#C993E8" transform="translate(15,4)"/>
</svg>
